<?xml version="1.0" encoding="UTF-8"?>
<svg id="Vrstva_2" data-name="Vrstva 2" xmlns="http://www.w3.org/2000/svg" viewBox="0 0 14.7 15.65">
  <defs>
    <style>
      .cls-1 {
        fill: none;
        stroke: #9e7e44;
        stroke-miterlimit: 10;
      }

      .cls-2 {
        fill: #9e7e44;
        stroke-width: 0px;
      }
    </style>
  </defs>
  <g id="Vrstva_1-2" data-name="Vrstva 1">
    <polygon class="cls-1" points="13.26 7.27 13.26 12.04 1.45 12.04 1.45 7.27 7.36 3.54 13.26 7.27"/>
    <polyline class="cls-1" points=".27 5.03 7.36 .59 14.44 5.03"/>
    <path class="cls-2" d="M13.42,13.29c-.48-.04-.93-.16-1.28-.34-.31-.16-.76-.17-1.07,0-.84.45-2.37.45-3.23-.02-.3-.17-.73-.13-1.03.03-.84.44-2.37.44-3.22-.03-.3-.17-.74-.13-1.04.03-.34.18-.8.3-1.28.33-.17.01-.3.12-.3.23v.48c0,.13.17.25.37.24.64-.04,1.24-.17,1.76-.38,1.25.51,3.03.5,4.25,0,1.25.51,3.03.5,4.25,0,.52.21,1.13.34,1.75.38.2.01.37-.1.37-.24v-.47c0-.12-.13-.23-.31-.24h0Z"/>
    <path class="cls-2" d="M13.42,14.7c-.48-.04-.93-.16-1.28-.34-.31-.16-.76-.17-1.07,0-.84.45-2.37.45-3.23-.02-.3-.17-.73-.13-1.03.03-.84.44-2.37.44-3.22-.03-.3-.17-.74-.13-1.04.03-.34.18-.8.3-1.28.33-.17.01-.3.12-.3.23v.48c0,.13.17.25.37.24.64-.04,1.24-.17,1.76-.38,1.25.51,3.03.5,4.25,0,1.25.51,3.03.5,4.25,0,.52.21,1.13.34,1.75.38.2.01.37-.1.37-.24v-.47c0-.12-.13-.23-.31-.24h0Z"/>
  </g>
</svg>